<svg xmlns="http://www.w3.org/2000/svg" viewBox="0 0 800 500" fill="none">
  <rect width="800" height="500" rx="12" fill="#f8f9fa"/>
  <!-- Docs header -->
  <rect y="0" width="800" height="48" rx="12" fill="#fff"/>
  <rect y="12" width="800" height="36" fill="#fff"/>
  <rect x="16" y="12" width="24" height="24" rx="3" fill="#4285f4"/>
  <text x="18" y="30" font-family="system-ui,sans-serif" font-size="14" font-weight="700" fill="#fff">D</text>
  <text x="48" y="30" font-family="system-ui,sans-serif" font-size="14" font-weight="500" fill="#202124">주간보고서_2026_03</text>
  <!-- Toolbar -->
  <rect x="0" y="48" width="800" height="36" fill="#fff"/>
  <line x1="0" y1="48" x2="800" y2="48" stroke="#e0e0e0"/>
  <rect x="12" y="54" width="40" height="24" rx="4" fill="#f1f3f4"/>
  <text x="20" y="70" font-family="system-ui,sans-serif" font-size="10" fill="#5f6368">파일</text>
  <rect x="58" y="54" width="40" height="24" rx="4" fill="#f1f3f4"/>
  <text x="64" y="70" font-family="system-ui,sans-serif" font-size="10" fill="#5f6368">편집</text>
  <rect x="104" y="54" width="40" height="24" rx="4" fill="#f1f3f4"/>
  <text x="112" y="70" font-family="system-ui,sans-serif" font-size="10" fill="#5f6368">보기</text>
  <!-- Editing mode indicator -->
  <rect x="650" y="54" width="80" height="24" rx="12" fill="#e8f0fe"/>
  <text x="664" y="70" font-family="system-ui,sans-serif" font-size="10" font-weight="600" fill="#1a73e8">제안 모드</text>
  <!-- Share button -->
  <rect x="740" y="54" width="48" height="24" rx="12" fill="#1a73e8"/>
  <text x="750" y="70" font-family="system-ui,sans-serif" font-size="10" font-weight="600" fill="#fff">공유</text>
  <!-- Format toolbar -->
  <rect x="0" y="84" width="800" height="32" fill="#f8f9fa"/>
  <line x1="0" y1="84" x2="800" y2="84" stroke="#e0e0e0"/>
  <rect x="16" y="90" width="60" height="20" rx="3" fill="#fff" stroke="#e0e0e0"/>
  <text x="24" y="104" font-family="system-ui,sans-serif" font-size="10" fill="#5f6368">본문</text>
  <rect x="84" y="90" width="120" height="20" rx="3" fill="#fff" stroke="#e0e0e0"/>
  <text x="92" y="104" font-family="system-ui,sans-serif" font-size="10" fill="#5f6368">Pretendard</text>
  <text x="220" y="104" font-family="system-ui,sans-serif" font-size="11" font-weight="700" fill="#5f6368">B</text>
  <text x="244" y="104" font-family="system-ui,sans-serif" font-size="11" font-style="italic" fill="#5f6368">I</text>
  <text x="264" y="104" font-family="system-ui,sans-serif" font-size="11" fill="#5f6368" text-decoration="underline">U</text>
  <!-- Document body -->
  <rect x="140" y="130" width="520" height="370" fill="#fff" stroke="#e0e0e0" rx="2"/>
  <!-- Document content -->
  <text x="172" y="168" font-family="system-ui,sans-serif" font-size="20" font-weight="700" fill="#202124">주간보고서</text>
  <rect x="172" y="180" width="100" height="1" fill="#e0e0e0"/>
  <text x="172" y="206" font-family="system-ui,sans-serif" font-size="14" font-weight="600" fill="#202124">1. 이번 주 성과</text>
  <rect x="172" y="216" width="400" height="10" rx="2" fill="#e0e0e0"/>
  <rect x="172" y="232" width="360" height="10" rx="2" fill="#e0e0e0"/>
  <rect x="172" y="248" width="380" height="10" rx="2" fill="#e0e0e0"/>
  <!-- Suggestion highlight -->
  <rect x="172" y="272" width="320" height="16" rx="2" fill="#dcfce7" stroke="#16a34a" stroke-width="0.5"/>
  <rect x="172" y="294" width="280" height="10" rx="2" fill="#e0e0e0"/>
  <text x="172" y="324" font-family="system-ui,sans-serif" font-size="14" font-weight="600" fill="#202124">2. 다음 주 계획</text>
  <rect x="172" y="334" width="390" height="10" rx="2" fill="#e0e0e0"/>
  <rect x="172" y="350" width="350" height="10" rx="2" fill="#e0e0e0"/>
  <!-- Comment bubble -->
  <rect x="510" y="262" width="130" height="48" rx="8" fill="#fff" stroke="#e0e0e0"/>
  <circle cx="528" cy="278" r="10" fill="#1a73e8" opacity="0.2"/>
  <text x="528" y="282" font-family="system-ui,sans-serif" font-size="8" fill="#1a73e8" text-anchor="middle">김</text>
  <text x="544" y="280" font-family="system-ui,sans-serif" font-size="9" fill="#5f6368">김민수</text>
  <text x="520" y="298" font-family="system-ui,sans-serif" font-size="9" fill="#3c4043">수정 확인 부탁드려요</text>
</svg>
